<svg width="24" height="24" viewBox="0 0 24 24" fill="none" xmlns="http://www.w3.org/2000/svg">
<g clip-path="url(#clip0_1_3)">
<path d="M21.9932 0.610001H2.0068C1.2334 0.610001 0.610001 1.2334 0.610001 2.0068V21.9932C0.610001 22.7619 1.2334 23.39 2.0068 23.39H21.9932C22.7619 23.39 23.39 22.7666 23.39 21.9932V2.0068C23.39 1.2334 22.7666 0.610001 21.9932 0.610001Z" fill="#FD3832"/>
<path fill-rule="evenodd" clip-rule="evenodd" d="M6.43969 16.7336C6.19008 16.664 5.96233 16.5401 5.77566 16.3725C5.58899 16.2048 5.44887 15.9983 5.36713 15.7703C4.90005 14.5921 4.76165 9.67207 5.66122 8.70081C5.96061 8.38485 6.38331 8.19032 6.83757 8.15945C9.25083 7.92061 16.7068 7.95246 17.5632 8.23906C17.804 8.31098 18.0241 8.43213 18.2068 8.59344C18.3896 8.75475 18.5303 8.95204 18.6184 9.17051C19.1287 10.3886 19.146 14.815 18.5492 15.9853C18.3909 16.2899 18.1258 16.5367 17.7967 16.6858C16.8971 17.0998 7.63334 17.0919 6.43969 16.7336V16.7336ZM10.2715 14.4249L14.5963 12.355L10.2715 10.2692V14.4249Z" fill="white"/>
</g>
<defs>
<clipPath id="clip0_1_3">
<rect width="24" height="24" fill="white"/>
</clipPath>
</defs>
</svg>
